Coordinates
version=1
nRows=4
nColumns=63
inDegrees=yes

Units are S.I. units (second, meters, Newtons, ...)
If the header above contains a line with 'inDegrees', this indicates whether rotational values are in degrees (yes) or radians (no).

endheader
time	pelvis_tilt	pelvis_list	pelvis_rotation	pelvis_tx	pelvis_ty	pelvis_tz	hip_flexion_r	hip_adduction_r	hip_rotation_r	knee_angle_r	knee_angle_r_beta	ankle_angle_r	subtalar_angle_r	mtp_angle_r	hip_flexion_l	hip_adduction_l	hip_rotation_l	knee_angle_l	knee_angle_l_beta	ankle_angle_l	subtalar_angle_l	mtp_angle_l	L5_S1_Flex_Ext	L5_S1_Lat_Bending	L5_S1_axial_rotation	L4_L5_Flex_Ext	L4_L5_Lat_Bending	L4_L5_axial_rotation	L3_L4_Flex_Ext	L3_L4_Lat_Bending	L3_L4_axial_rotation	L2_L3_Flex_Ext	L2_L3_Lat_Bending	L2_L3_axial_rotation	L1_L2_Flex_Ext	L1_L2_Lat_Bending	L1_L2_axial_rotation	L1_T12_Flex_Ext	L1_T12_Lat_Bending	L1_T12_axial_rotation	Abs_r3	Abs_r2	Abs_r1	Abs_t1	Abs_t2	neck_flexion	neck_bending	neck_rotation	arm_flex_r	arm_add_r	arm_rot_r	elbow_flex_r	pro_sup_r	wrist_flex_r	wrist_dev_r	arm_flex_l	arm_add_l	arm_rot_l	elbow_flex_l	pro_sup_l	wrist_flex_l	wrist_dev_l
      0.03333333	     -4.89015072	     -1.68341442	      5.67692499	     -2.49670846	      0.90663019	      0.37813834	      2.26180044	     -0.79612903	    -22.58648969	      1.46538065	      0.02557572	     11.75951566	      2.92433553	      0.00000000	     13.23058642	     -2.01300441	     -1.71134387	     17.01963382	      0.29704865	     18.58373034	     -6.04826262	      0.00000000	      0.00768723	      0.27781947	     -0.87963857	      0.01427596	      0.36949990	     -0.93461598	      0.01262935	      0.67549027	     -0.93461598	      0.00878574	      0.67549027	     -0.76968375	      0.00713836	      0.56652947	     -0.71470634	      0.00439248	      0.43034236	     -0.65972893	      0.05490912	      3.14274944	     -4.89228582	      0.00000000	      0.00000000	      0.00000000	      0.00000000	      0.00000001	     -3.80795961	    -14.53234088	     22.57461920	     36.66773451	     60.55759383	      0.00000000	      4.82759361	      3.26015093	    -13.34534999	     44.67170116	     28.25150120	     58.79747365	      0.00000000	      4.82759361
      0.06666667	     -4.99450311	     -2.40656001	      6.24147199	     -2.49741532	      0.90649316	      0.37658252	      2.72238583	     -0.05861125	    -21.30503671	      0.83161394	      0.01451440	     11.96468715	      2.02311030	      0.00000000	     14.33067459	     -2.63210686	     -1.18545516	     18.55772362	      0.32389338	     18.79538395	     -6.32041607	      0.00000000	      0.00766418	      0.35850766	     -0.91478836	      0.01423315	      0.47681519	     -0.97196263	      0.01259149	      0.87167552	     -0.97196263	      0.00875939	      0.87167552	     -0.80043981	      0.00711696	      0.73106882	     -0.74326554	      0.00437931	      0.55532837	     -0.68609127	      0.05474449	      4.05551035	     -5.08777841	      0.00000000	      0.00000000	      0.00000000	      0.00000000	      0.00000001	     -3.70859905	    -14.94621809	     22.70796815	     36.67628398	     60.62136963	      0.00000000	      4.83682715	      3.67408598	    -13.09033697	     44.78460002	     28.21559604	     58.85355474	      0.00000000	      4.83682715
      0.10000000	     -5.08534323	     -2.89330530	      6.07804946	     -2.49806944	      0.90640974	      0.37584108	      3.28081609	      0.47697453	    -13.55404472	      0.50992244	      0.00889983	     10.06091622	     -8.17446269	      0.00000000	     15.02459783	     -3.09965407	     -1.14717112	     19.56060807	      0.34139701	     18.77156824	     -6.84503203	      0.00000000	      0.00693760	      0.40670444	     -0.85893792	      0.01288382	      0.54091691	     -0.91262154	      0.01139779	      0.98886118	     -0.91262154	      0.00792898	      0.98886118	     -0.75157068	      0.00644226	      0.82935170	     -0.69788706	      0.00396415	      0.62998518	     -0.64420344	      0.04955460	      4.60072198	     -4.77715503	      0.00000000	      0.00000000	      0.00000000	      0.00000000	      0.00000001	     -3.26959795	    -15.34606981	     23.68152195	     36.28609109	     61.05210566	      0.00000000	      4.88225204	      3.85502902	    -12.94374640	     44.37916295	     28.40111745	     59.03590520	      0.00000000	      4.88225204
      0.13333333	     -5.08562120	     -3.31756984	      5.90411146	     -2.49850925	      0.90634917	      0.37474757	      3.60325003	      0.80544933	    -12.50550119	      0.46124943	      0.00805032	     10.29329846	     -8.53169989	      0.00000000	     15.58738801	     -3.50860148	     -1.08659455	     20.59311636	      0.35941768	     18.94904210	     -7.06438480	      0.00000000	      0.00615389	      0.43774894	     -0.84702443	      0.01142839	      0.58220609	     -0.89996345	      0.01011023	      1.06434277	     -0.89996345	      0.00703328	      1.06434277	     -0.74114637	      0.00571450	      0.89265764	     -0.68820735	      0.00351633	      0.67807311	     -0.63526832	      0.04395664	      4.95190355	     -4.71089575	      0.00000000	      0.00000000	      0.00000000	      0.00000000	      0.00000001	     -2.79008860	    -15.45190670	     23.92771110	     35.60154648	     61.11706290	      0.00000000	      4.88440744	      3.93034752	    -12.86447506	     44.25323008	     28.47631515	     59.03031416	      0.00000000	      4.88440744
